<?xml version="1.0" encoding="utf-8"?>
<!-- Generator: Adobe Illustrator 19.0.0, SVG Export Plug-In . SVG Version: 6.00 Build 0)  -->
<svg version="1.1" id="Layer_1" xmlns="http://www.w3.org/2000/svg" xmlns:xlink="http://www.w3.org/1999/xlink" x="0px" y="0px"
	 viewBox="0 0 650 200" style="enable-background:new 0 0 650 200;" xml:space="preserve">
<style type="text/css">
	.st0{fill:#244151;}
	.st1{fill:none;stroke:#244151;stroke-width:3;stroke-linecap:round;stroke-miterlimit:10;}
	.st2{fill:#2681AA;}
	.st3{font-family:'Gabriola';}
	.st4{font-size:45.7623px;}
</style>
<path id="XMLID_4_" class="st0" d="M60.5,129c-0.5-0.1-1-0.5-1-1c-0.7-4.6-1.5-9.4-2.5-14.3c-0.8-4.1-1.7-8.3-2.6-12.5
	c-0.2-1.1-1.8-1.3-2.2-0.3c-0.3,0.6-0.6,1.3-0.9,1.9c-0.9,1.8-1.9,3.6-2.9,5.5c-1,1.9-2.1,3.8-3.2,5.7c-1.1,1.9-2.2,3.8-3.3,5.6
	c-1.1,1.8-2.2,3.6-3.3,5.2c-0.9,1.4-1.8,2.7-2.6,3.9c-0.2,0.4-0.7,0.5-1.1,0.5l-2.6-0.3c-0.5-0.1-1-0.5-1-1
	c-0.3-2.2-0.7-4.5-1.1-6.9c-0.5-2.7-0.9-5.5-1.5-8.3c-0.5-2.8-1.1-5.5-1.6-8.2c-0.6-2.7-1.1-5.2-1.7-7.7c-0.6-2.4-1.1-4.6-1.6-6.7
	c-0.5-2-1-3.8-1.4-5.2c-0.5-1.7-1-3-1.3-4c-0.3-1.1-0.7-2.1-1-2.5c-0.4-0.6-1.4-1.4-1.9-1.6c-0.5-0.2-1.5-0.3-2.2-0.3
	c-0.8,0-1.6,0.1-2.6,0.3c-0.6,0.1-1.8,0.4-2.5,1c-1.1,1-2.8,3.2-3.3,2.7l-0.1-0.2c-0.1-0.6,3.1-4.4,3.7-4.9c2.3-1.9,4.9-2.3,7.2-2.9
	c2.5-0.7,4.3-1,5.4-1c0.6,0,1.3,0.1,1.8,0.3c0.6,0.2,1.1,0.6,1.6,1.2c0.5,0.6,1,1.3,1.5,2.3c0.5,1,1,2.2,1.4,3.7
	c0.3,1.1,0.7,2.4,1.2,4.1c0.4,1.6,0.9,3.5,1.4,5.5c0.5,2,1,4.2,1.5,6.6c0.5,2.4,1,4.8,1.5,7.3c0.5,2.5,1,5.1,1.4,7.7
	c0.3,1.5,0.5,3,0.7,4.6c0.2,1.1,1.6,1.4,2.2,0.4c0.1-0.1,0.2-0.3,0.3-0.4c0.7-1.3,1.5-2.7,2.3-4.2c0.8-1.5,1.6-3,2.4-4.6
	c0.8-1.6,1.6-3.1,2.3-4.6c0.7-1.5,1.3-2.9,1.8-4.2c0.5-1.3,0.9-2.4,1.1-3.3c0.2-0.6,0.3-1.2,0.3-1.8c0.1-0.6,0.1-1.2,0.1-1.8
	c0-0.8-0.1-1.7-0.2-2.6c-0.1-0.9-0.2-1.8-0.4-2.8c-0.2-0.9-0.4-1.9-0.6-2.8c-0.2-0.9-0.4-1.8-0.6-2.6c-0.2-0.7-0.3-1.3-0.3-1.7
	c0-0.8,0.3-1.5,0.8-1.9c0.5-0.5,1.4-0.7,2.7-0.7c0.8,0,1.7,0.1,2.5,0.3c0.7,0.2,1.3,0.4,1.9,0.7c0.3,0.1,0.6,0.4,0.6,0.8
	c0.8,3,1.6,6.2,2.4,9.6c0.9,3.5,1.7,7.1,2.6,10.7c0.8,3.6,1.6,7.2,2.4,10.7c0.5,2.5,1,4.9,1.5,7.2c0.2,1.1,1.6,1.3,2.2,0.4
	c1.3-2,2.5-4.1,3.7-6.2c1.7-3,3.3-6,4.6-9c1.4-3,2.4-5.9,3.3-8.9c0.8-2.9,1.2-5.8,1.2-8.6c0-1.2-0.1-2.3-0.2-3.4
	c-0.2-1.1-0.4-2.2-0.8-3.2s-0.9-2-1.5-2.9c-0.6-0.9-1.5-1.7-2.4-2.5l0.4-0.9c0.5-0.1,0.9-0.1,1.4-0.1c0.4,0,0.9,0,1.3,0
	c3.4,0,6,0.8,7.6,2.4c1.6,1.6,2.5,3.9,2.5,6.8c0,2.2-0.4,4.7-1.3,7.5c-0.9,2.8-2,5.7-3.4,8.7s-3.1,6.2-4.9,9.3
	c-1.8,3.2-3.7,6.2-5.6,9.2c-1.9,3-3.8,5.8-5.6,8.4c-1.7,2.4-3.1,4.5-4.5,6.3c-0.3,0.3-0.7,0.5-1.1,0.5L60.5,129z"/>
<path id="XMLID_6_" class="st0" d="M133.9,115.9c0.4-0.2,0.5-0.1,0.7,0c0.3,0.2,0.5,0.3,0.7,0.5c0.2,0.2,0.4,0.3,0.5,0.5
	c0.2,0.2,0.2,0.4,0.2,0.6c0,0.1,0,0.2-0.1,0.3c-1.4,2-3,3.8-4.7,5.3s-3.4,2.7-5.2,3.7c-1.8,1-3.6,1.7-5.5,2.2
	c-1.9,0.5-3.7,0.7-5.5,0.7c-3.1,0-5.9-0.6-8.5-1.9c-2.6-1.3-4.8-3-6.7-5.2s-3.3-4.8-4.4-7.7c-1-3-1.6-6.1-1.6-9.5
	c0-2.8,0.3-5.5,0.9-8.3c0.6-2.8,1.5-5.4,2.6-7.9c1.1-2.5,2.6-4.8,4.2-7c1.7-2.2,3.5-4,5.6-5.6c2.1-1.6,4.4-2.8,6.9-3.7
	s5.2-1.4,8.1-1.4c1.9,0,3.7,0.3,5.5,0.8c1.7,0.5,3.2,1.3,4.6,2.2s2.3,2.2,3.1,3.6c0.8,1.4,1.2,3,1.2,4.8c0,2.6-0.9,4.9-2.6,6.9
	c-1.7,2-4.1,3.6-7.1,5s-6.6,2.5-10.7,3.3c-4.1,0.8-8.5,1.5-13.3,1.9v0.7c0,3.3,0.4,6.3,1.3,9.1c0.8,2.7,2,5.1,3.5,7
	c1.5,2,3.2,3.5,5.2,4.6c2,1.1,4.1,1.6,6.4,1.6c2.3,0,4.7-0.6,7.1-1.7C129,120.1,131.3,118.4,133.9,115.9z M126.7,84.5
	c0-1.2-0.2-2.3-0.6-3.3c-0.4-1-1-1.9-1.7-2.7c-0.7-0.8-1.6-1.4-2.5-1.8c-1-0.4-2-0.7-3.2-0.7c-1.7,0-3.2,0.3-4.6,0.9
	c-1.4,0.6-2.6,1.4-3.7,2.4c-1.1,1-2,2.2-2.9,3.6c-0.8,1.4-1.5,2.8-2.1,4.3c-0.6,1.5-1.1,3.1-1.4,4.7c-0.2,1.1-0.4,2.2-0.6,3.2
	c-0.1,0.7,0.5,1.4,1.3,1.3c3.1-0.3,5.9-0.7,8.4-1.2c2.9-0.6,5.4-1.4,7.4-2.4c2-1,3.5-2.2,4.6-3.6C126.2,87.9,126.7,86.3,126.7,84.5z
	"/>
<path id="XMLID_9_" class="st0" d="M162,23.3c0.5,0.2,0.8,0.7,0.7,1.2c-0.5,3.9-0.9,7.8-1.4,11.9c-0.5,4.4-1,8.8-1.4,13.3
	c-0.5,4.5-0.9,9-1.3,13.6c-0.4,4.5-0.8,9-1.2,13.5c-0.3,4.4-0.7,8.8-0.9,13c-0.3,4.2-0.5,8.3-0.6,12.2l0.4,0c2-5,4.2-9.4,6.6-13.3
	c2.4-3.8,4.7-7,7.2-9.6c2.4-2.6,4.8-4.5,7.2-5.9c2.4-1.3,4.6-2,6.8-2c1.8,0,3.4,0.3,4.7,1c1.4,0.7,2.6,1.5,3.6,2.6
	c1,1.1,1.8,2.4,2.5,3.8c0.7,1.4,1.2,2.9,1.6,4.5c0.4,1.6,0.7,3.1,0.9,4.7c0.2,1.6,0.3,3.1,0.3,4.5c0,3.8-0.4,7.4-1.1,10.8
	c-0.8,3.3-1.8,6.4-3.2,9.1c-1.3,2.8-2.9,5.2-4.8,7.3c-1.8,2.1-3.8,4-6,5.4s-4.4,2.6-6.8,3.4c-2.4,0.8-4.8,1.1-7.2,1.1
	c-1.6,0-3.2-0.2-4.8-0.5c-1.6-0.4-3.2-0.9-4.7-1.7c-1.5-0.7-3-1.7-4.4-2.9c-0.9-0.8-1.7-1.6-2.5-2.5c-0.6-0.7-1.7-0.6-2,0.3
	c-0.6,1.4-1.3,2.7-1.9,3.7c-0.7,1.2-1.5,2.1-2.1,2.9c-0.3,0.3-0.8,0.5-1.2,0.4l0,0c-0.7-0.2-1.1-0.9-0.8-1.5c1.2-3.7,2.1-8,2.7-13
	c0.7-5.5,1.2-11.8,1.5-18.8c0.1-3,0.3-6.4,0.5-10.2s0.4-7.9,0.6-12.1c0.2-4.2,0.4-8.6,0.7-13c0.2-4.4,0.5-8.7,0.7-12.9
	c0.2-4.2,0.5-8.1,0.7-11.9c0.2-3.7,0.4-7.1,0.6-10c0-0.6,0.2-1.2,0.6-1.6c0.4-0.5,0.8-0.8,1.4-1.1c0.5-0.3,1.2-0.5,1.8-0.6
	c0.7-0.1,1.4-0.2,2-0.2C159.2,22.4,160.6,22.7,162,23.3z M188.2,96.3c0-1.8-0.1-3.6-0.4-5.4c-0.3-1.9-0.7-3.5-1.3-5.1
	c-0.5-1.2-1.1-2.3-1.8-3.1c-1.2-1.5-3.1-2.2-5-2c-1.2,0.1-2.4,0.5-3.6,1.1c-1.5,0.8-3,1.8-4.5,3.2c-1.4,1.3-2.8,2.9-4.1,4.6
	s-2.6,3.6-3.7,5.5c-1.1,1.9-2.2,3.8-3.1,5.8c-0.9,2-1.7,3.8-2.4,5.6c-0.7,1.8-1.2,3.4-1.5,4.8c-0.3,1.3-0.5,2.4-0.5,3.3
	c0,0.1,0,0.2,0,0.4c0.4,1.5,1,2.9,1.8,4.2c0.8,1.3,1.8,2.4,2.9,3.3c1.1,0.9,2.4,1.6,3.8,2.1c1.4,0.5,2.9,0.7,4.5,0.7
	c2.6,0,5-0.7,7.3-2s4.3-3.2,6-5.7c1.7-2.5,3.1-5.5,4-9.1C187.7,104.9,188.2,100.8,188.2,96.3z"/>
<path id="XMLID_12_" class="st0" d="M209,104.8c0.7,0,1.2,0.6,1.1,1.3c0,0.2,0,0.4,0,0.6c0,0.6,0,1.1,0,1.7c0,2.9,0.4,5.4,1.2,7.5
	c0.8,2.1,1.9,3.7,3.4,5c1.5,1.3,3.2,2.2,5.3,2.8c2.1,0.6,4.4,0.9,6.9,0.9s5-0.4,7.3-1.1c2.3-0.7,4.3-1.8,6.1-3.2
	c1.7-1.4,3.1-3.2,4.2-5.3c1-2.1,1.5-4.5,1.5-7.3c0-1.8-0.2-3.4-0.7-4.8c-0.5-1.5-1.1-2.8-2-4c-0.8-1.2-1.8-2.4-3-3.4
	c-1.1-1-2.4-2-3.8-2.9c-1.4-0.9-2.8-1.8-4.3-2.6c-1.5-0.8-3-1.7-4.6-2.5c-1.6-0.9-3.2-1.8-4.9-2.7c-1.6-0.9-3.2-1.9-4.6-3
	c-1.5-1.1-2.8-2.2-4.1-3.4c-1.3-1.2-2.4-2.6-3.3-4.1c-0.9-1.5-1.6-3.2-2.2-5c-0.5-1.8-0.8-3.8-0.8-6c0-2.7,0.3-5.3,1-7.7
	c0.7-2.4,1.7-4.5,2.9-6.5c1.3-2,2.8-3.7,4.5-5.3c1.7-1.5,3.7-2.9,5.7-3.9c2.1-1.1,4.3-1.9,6.7-2.4c2.4-0.6,4.8-0.8,7.3-0.8
	c1.1,0,2.4,0.1,3.6,0.2c1.3,0.1,2.6,0.4,3.9,0.6c1.3,0.3,2.5,0.6,3.7,1c1.2,0.4,2.2,0.9,3.1,1.4c0.9,0.5,1.6,1.1,2.2,1.7
	c0.5,0.6,1.1,2,1.3,2.7c0.2,0.8,0.5,1.8,0.5,3c0,1.3,0.1,2.4,0,3.9c-0.1,1.4-0.3,2.2-0.5,3.9c-0.2,1.3-0.5,2.4-0.9,4.1
	c-0.2,0.6-0.6,1.2-1.3,1.1l-1.5-0.1c-0.7,0-1.2-0.6-1.1-1.2c0-0.5,0-1,0-1.5c0-2.6-0.4-4.8-1.1-6.8c-0.8-2-1.8-3.6-3.2-4.9
	s-3-2.3-5-2.9c-2-0.7-4.1-1-6.5-1c-2.4,0-4.6,0.4-6.6,1.2c-2.1,0.8-3.8,1.9-5.3,3.3c-1.5,1.4-2.7,3.1-3.5,5
	c-0.9,1.9-1.3,4.1-1.3,6.4c0,1.9,0.2,3.6,0.7,5.1c0.5,1.5,1.2,3,2,4.2c0.9,1.3,1.9,2.5,3.1,3.5c1.2,1.1,2.5,2.1,3.9,3
	c1.4,0.9,2.9,1.8,4.4,2.7s3.1,1.7,4.7,2.6c1.6,0.9,3.2,1.7,4.9,2.6c1.6,0.9,3.2,1.9,4.6,2.9c1.5,1,2.8,2.1,4.1,3.3
	c1.3,1.2,2.3,2.5,3.3,4c0.9,1.5,1.6,3.1,2.2,4.8c0.5,1.8,0.8,3.7,0.8,5.9c0,3.5-0.5,6.7-1.5,9.4s-2.3,5.1-3.9,7.1
	c-1.6,2-3.5,3.7-5.6,5.1c-2.1,1.4-4.3,2.5-6.6,3.4c-2.3,0.9-4.5,1.5-6.8,1.8c-2.3,0.4-4.4,0.6-6.3,0.6c-2.6,0-5-0.2-7.2-0.5
	c-2.2-0.3-4.2-0.8-5.9-1.4c-1.7-0.6-2.7-1.2-3.6-2c-0.8-0.7-1.5-1.5-1.8-2.2c-0.8-1.6-1-3.8-0.9-7c0.1-2.9,0.5-6.9,1.5-10.7
	c0.2-0.6,0.6-1.2,1.3-1.1L209,104.8z"/>
<path id="XMLID_14_" class="st0" d="M281.9,43.4c0.5,0.2,0.8,0.8,0.7,1.4c-1,4.6-1.8,9.4-2.5,14.3c-0.7,4.8-1.3,9.5-1.7,14.2
	c-0.1,0.7,0.5,1.3,1.2,1.3c0.8,0,1.5,0,2.3,0.1c1.1,0,2.2,0.1,3.2,0.1c1,0,1.9,0,2.7,0s1.5,0,2,0c2.4,0,4.3-0.1,5.8-0.4
	c0.1,0.4,0.2,0.8,0.3,1.2c0.1,0.4,0.1,0.7,0.1,1c0,1.1-0.5,1.9-1.4,2.2c-0.9,0.3-2.3,0.5-4.1,0.5c-1.7,0-3.6-0.1-5.7-0.3
	c-1.8-0.2-3.7-0.3-5.7-0.5c-0.6,0-1.2,0.4-1.3,1.1c-0.2,2.4-0.4,4.7-0.6,6.9c-0.2,2.6-0.3,5.1-0.5,7.4c-0.1,2.3-0.2,4.5-0.3,6.5
	c-0.1,2-0.1,3.7-0.1,5.2c0,2.8,0.1,5.2,0.4,7.4c0.3,2.2,0.8,4,1.5,5.5c0.7,1.5,1.7,2.7,3,3.5c1.3,0.8,2.9,1.2,4.8,1.2
	c1.4,0,3-0.2,4.7-0.7c1.5-0.4,3.2-1.1,5-1.9c0.6-0.3,1.3-0.1,1.6,0.5c0.1,0.2,0.2,0.5,0.3,0.8c0.2,0.5-0.1,1-0.5,1.3
	c-1.4,0.9-2.8,1.7-4.2,2.4c-1.6,0.9-3.2,1.6-4.8,2.2c-1.6,0.6-3.1,1.1-4.6,1.4c-1.5,0.3-2.9,0.5-4.2,0.5c-1.7,0-3.3-0.3-4.7-0.9
	s-2.7-1.8-3.7-3.4c-1-1.6-1.9-3.8-2.4-6.5c-0.6-2.7-0.9-6.2-0.9-10.4c0-2.4,0-4.8,0.1-7.3c0.1-2.5,0.2-5,0.3-7.6
	c0.1-2.6,0.3-5.1,0.5-7.7c0.2-2.1,0.4-4.2,0.6-6.2c0.1-0.7-0.5-1.3-1.2-1.3c-1.5,0-3,0.1-4.3,0.2c-1.7,0.1-3.2,0.4-4.5,0.7
	c-0.1-0.2-0.1-0.3-0.1-0.5c0-0.5,0.3-1.1,0.8-1.5s1.3-0.9,2.2-1.3c0.9-0.4,2.1-0.7,3.4-1c1-0.2,2.2-0.4,3.4-0.5
	c0.6-0.1,1-0.5,1.1-1.1c0.6-5,1.2-9.8,1.8-14.3c0.7-4.8,1.3-9.1,2-12.9c0.1-0.7,0.4-1.2,0.7-1.7c0.3-0.4,0.8-0.8,1.2-1
	c0.5-0.3,1-0.4,1.5-0.5c0.5-0.1,1.1-0.2,1.6-0.2c0.9,0,1.6,0.1,2.3,0.3C281.2,43.2,281.6,43.3,281.9,43.4z"/>
<path id="XMLID_16_" class="st0" d="M315.7,72.7c0.5,0.2,0.8,0.7,0.8,1.3c-0.4,2.7-0.7,5.3-1,8c-0.3,3-0.6,5.8-0.8,8.6
	c-0.2,2.8-0.3,5.4-0.4,7.8c-0.1,2.5-0.1,4.7-0.1,6.7c0,2.7,0,5,0.1,6.9c0.1,1.9,0.2,3.5,0.4,4.9c0.2,1.3,0.4,2.4,0.7,3.2
	c0.3,0.8,0.6,1.4,1,1.8c0.4,0.4,0.9,0.7,1.4,0.8c0.5,0.1,1.1,0.2,1.8,0.2c1.2,0,2.6-0.2,4-0.6c1.1-0.3,2.2-0.6,3.2-1.1
	c0.6-0.3,1.3,0.1,1.5,0.7l0,0c0.2,0.5,0,1.1-0.4,1.4c-0.8,0.6-1.7,1.1-2.8,1.7c-1.4,0.8-2.9,1.5-4.4,2.1s-3.1,1.2-4.6,1.6
	c-1.5,0.4-2.8,0.6-3.9,0.6c-0.7,0-1.4-0.1-2-0.2c-0.6-0.1-1.1-0.4-1.6-0.9c-0.5-0.5-0.9-1.1-1.3-2.1c-0.4-0.9-0.7-2.1-0.9-3.7
	c-0.2-1.6-0.4-3.5-0.6-5.8c-0.1-2.3-0.2-5.1-0.2-8.4c0-1.9,0-4.1,0.1-6.6c0-2.4,0.1-5.1,0.2-7.9c0.1-2.8,0.2-5.8,0.3-8.9
	c0.1-3.1,0.3-6.3,0.5-9.6c0.1-0.7,0.2-1.3,0.6-1.8c0.3-0.5,0.7-0.8,1.2-1c0.5-0.2,1-0.4,1.6-0.5c0.6-0.1,1.1-0.1,1.5-0.1
	C313.1,71.9,314.4,72.2,315.7,72.7z M313.2,55.6c-0.9,0-1.7-0.2-2.4-0.6c-0.7-0.4-1.3-0.9-1.8-1.5c-0.5-0.6-0.9-1.3-1.1-2.1
	c-0.3-0.8-0.4-1.6-0.4-2.4c0-1.2,0.2-2.2,0.6-3.1c0.4-0.9,0.9-1.6,1.5-2.2c0.6-0.6,1.3-1.1,2.1-1.4c0.7-0.3,1.5-0.4,2.2-0.4
	c0.9,0,1.7,0.2,2.4,0.5c0.7,0.3,1.3,0.8,1.8,1.3c0.5,0.6,0.9,1.2,1.2,2c0.3,0.7,0.4,1.5,0.4,2.4c0,0.9-0.2,1.8-0.5,2.7
	c-0.3,0.9-0.7,1.7-1.3,2.4c-0.6,0.7-1.2,1.3-2,1.7C315,55.4,314.1,55.6,313.2,55.6z"/>
<path id="XMLID_19_" class="st0" d="M350.9,43.4c0.5,0.2,0.8,0.8,0.7,1.4c-1,4.6-1.8,9.4-2.5,14.3c-0.7,4.8-1.3,9.5-1.7,14.2
	c-0.1,0.7,0.5,1.3,1.2,1.3c0.8,0,1.5,0,2.3,0.1c1.1,0,2.2,0.1,3.2,0.1c1,0,1.9,0,2.7,0s1.5,0,2,0c2.3,0,4.3-0.1,5.8-0.4
	c0.1,0.4,0.2,0.8,0.3,1.2c0.1,0.4,0.1,0.7,0.1,1c0,1.1-0.5,1.9-1.4,2.2c-0.9,0.3-2.3,0.5-4.1,0.5c-1.7,0-3.6-0.1-5.7-0.3
	c-1.8-0.2-3.7-0.3-5.7-0.5c-0.6,0-1.2,0.4-1.3,1.1c-0.2,2.4-0.4,4.7-0.6,6.9c-0.2,2.6-0.3,5.1-0.5,7.4s-0.2,4.5-0.3,6.5
	c-0.1,2-0.1,3.7-0.1,5.2c0,2.8,0.1,5.2,0.4,7.4s0.8,4,1.5,5.5c0.7,1.5,1.7,2.7,3,3.5s2.9,1.2,4.8,1.2c1.4,0,3-0.2,4.7-0.7
	c1.5-0.4,3.2-1.1,5-1.9c0.6-0.3,1.3-0.1,1.6,0.5c0.1,0.2,0.2,0.5,0.3,0.8c0.2,0.5-0.1,1-0.5,1.3c-1.4,0.9-2.8,1.7-4.2,2.4
	c-1.6,0.9-3.2,1.6-4.8,2.2c-1.6,0.6-3.1,1.1-4.6,1.4c-1.5,0.3-2.9,0.5-4.2,0.5c-1.7,0-3.3-0.3-4.7-0.9s-2.7-1.8-3.7-3.4
	c-1-1.6-1.9-3.8-2.4-6.5c-0.6-2.7-0.9-6.2-0.9-10.4c0-2.4,0-4.8,0.1-7.3c0.1-2.5,0.2-5,0.3-7.6c0.1-2.6,0.3-5.1,0.5-7.7
	c0.2-2.1,0.4-4.2,0.6-6.2c0.1-0.7-0.5-1.3-1.2-1.3c-1.5,0-3,0.1-4.3,0.2c-1.7,0.1-3.2,0.4-4.5,0.7c-0.1-0.2-0.1-0.3-0.1-0.5
	c0-0.5,0.3-1.1,0.8-1.5s1.3-0.9,2.2-1.3c0.9-0.4,2.1-0.7,3.4-1c1-0.2,2.2-0.4,3.4-0.5c0.6-0.1,1-0.5,1.1-1.1c0.6-5,1.2-9.8,1.8-14.3
	c0.7-4.8,1.3-9.1,2-12.9c0.1-0.7,0.4-1.2,0.7-1.7c0.3-0.4,0.8-0.8,1.2-1c0.5-0.3,1-0.4,1.5-0.5c0.5-0.1,1.1-0.2,1.6-0.2
	c0.9,0,1.6,0.1,2.3,0.3C350.2,43.2,350.5,43.3,350.9,43.4z"/>
<path id="XMLID_21_" class="st0" d="M401.7,87.8c0.7-1.4,1.1-2.9,1.1-4.3c0-1-0.2-2-0.5-2.8s-0.9-1.7-1.6-2.4
	c-0.7-0.7-1.6-1.2-2.6-1.6s-2.3-0.6-3.7-0.6c-2,0-3.8,0.4-5.4,1.1c-1.6,0.7-3,1.7-4.2,2.9s-2.3,2.7-3.1,4.3
	c-0.9,1.6-1.6,3.4-2.1,5.2c-0.6,1.9-1,3.8-1.2,5.7c-0.3,2-0.4,3.9-0.4,5.7c0,3.3,0.4,6.4,1.3,9.1c0.9,2.7,2,5,3.5,7
	c1.5,1.9,3.2,3.4,5.2,4.5c2,1.1,4.1,1.6,6.3,1.6c2.4,0,4.7-0.6,7.1-1.8c2.4-1.2,4.8-3.2,7-5.9c0.2,0.1,0.4,0.2,0.6,0.3
	c0.2,0.1,0.5,0.3,0.7,0.5c0.2,0.2,0.4,0.4,0.5,0.5s0.2,0.3,0.2,0.5c0,0.1,0,0.2,0,0.2l-0.1,0.2c-2.5,4.1-5.5,7.1-9,9.1
	c-3.5,2-7.4,3-11.5,3c-2.3,0-4.4-0.3-6.3-0.9c-1.9-0.6-3.6-1.5-5.2-2.6c-1.5-1.1-2.9-2.5-4.1-4c-1.2-1.5-2.2-3.2-2.9-5
	c-0.8-1.8-1.4-3.7-1.8-5.7c-0.4-2-0.6-4-0.6-6c0-2.7,0.3-5.4,0.9-8.2c0.6-2.7,1.5-5.3,2.6-7.9c1.1-2.5,2.5-4.9,4.2-7.1
	c1.6-2.2,3.5-4.1,5.6-5.7c2.1-1.6,4.4-2.9,6.9-3.8c2.5-0.9,5.2-1.4,8-1.4c2.1,0,4.1,0.3,5.9,0.8c1.8,0.5,3.4,1.2,4.7,2.2
	c1.3,0.9,2.4,2.1,3.1,3.4c0.8,1.3,1.1,2.8,1.1,4.4c0,1.1-0.2,2-0.5,2.8c-0.3,0.8-0.8,1.5-1.4,2.1c-0.6,0.6-1.3,1-2.1,1.3
	c-0.8,0.3-1.6,0.4-2.6,0.4c-0.6,0-1.2-0.1-1.8-0.2c-0.6-0.1-1.2-0.3-1.8-0.6L401.7,87.8z"/>
<path id="XMLID_23_" class="st0" d="M429.8,107c2-6.5,4.1-12.1,6.3-16.6c2.2-4.5,4.5-8.2,6.8-11.1c2.3-2.8,4.6-4.9,6.9-6.1
	c2.3-1.3,4.5-1.9,6.6-1.9c1.4,0,2.8,0.3,4.2,0.8c1.3,0.6,2.5,1.4,3.6,2.6c1,1.2,1.9,2.7,2.5,4.5s0.9,4,0.9,6.6c0,0.8,0,1.8-0.1,3.2
	c-0.1,1.3-0.2,2.8-0.3,4.5c-0.1,1.6-0.3,3.4-0.4,5.2c-0.2,1.8-0.3,3.6-0.4,5.3c-0.1,1.8-0.2,3.4-0.3,5c-0.1,1.6-0.1,2.9-0.1,4.1
	c0,2,0.1,3.7,0.3,4.9c0.2,1.3,0.4,2.3,0.8,3c0.4,0.7,0.9,1.2,1.5,1.5c0.6,0.3,1.4,0.4,2.4,0.4c1.3,0,2.7-0.2,4.2-0.6
	c1.1-0.3,2.2-0.6,3.3-1.1c0.6-0.3,1.3,0.1,1.5,0.7v0c0.2,0.5,0,1.1-0.4,1.4c-0.8,0.6-1.7,1.1-2.8,1.7c-1.4,0.8-2.9,1.5-4.5,2.1
	c-1.6,0.6-3.1,1.2-4.7,1.6c-1.5,0.4-2.9,0.6-4.1,0.6c-1.4,0-2.5-0.4-3.3-1.1s-1.4-1.8-1.8-3.1s-0.7-2.8-0.8-4.5s-0.2-3.6-0.2-5.6
	c0-2.4,0.1-4.9,0.3-7.4c0.2-2.6,0.3-5,0.5-7.4c0.2-2.4,0.4-4.5,0.5-6.5c0.2-2,0.3-3.5,0.3-4.7c0-2.9-0.6-5-1.7-6.5
	c-1.1-1.4-2.6-2.2-4.5-2.2c-1.5,0-3,0.6-4.7,1.9c-1.7,1.3-3.3,3-5,5.2s-3.2,4.8-4.7,7.8c-1.5,3-2.9,6.3-4.1,9.8s-2.2,7.2-3,11
	c-0.7,3.5-1.2,7-1.5,10.5c0,0.6-0.5,1-1,1.1l-7.3,0.9l-0.6,0c0.2-3,0.3-6.4,0.5-10.1c0.2-3.7,0.4-7.6,0.6-11.7s0.5-8.4,0.7-12.9
	s0.5-9,0.7-13.7c0.2-4.6,0.5-9.3,0.8-14.1c0.3-4.7,0.5-9.4,0.8-14c0.2-4.6,0.5-9.1,0.7-13.5c0.2-4.4,0.5-8.6,0.7-12.7
	c0-0.6,0.2-1.2,0.5-1.6c0.3-0.5,0.8-0.8,1.3-1.1c0.5-0.3,1.1-0.5,1.8-0.6c0.7-0.1,1.4-0.2,2.1-0.2c1.3,0,2.7,0.3,4.1,0.9
	c0.5,0.2,0.8,0.7,0.7,1.2c-0.6,4.9-1.1,9.5-1.5,13.6c-0.5,4.4-0.9,8.5-1.3,12.2c-0.4,3.8-0.7,7.3-1,10.5c-0.3,3.3-0.6,6.4-0.8,9.4
	c-0.2,3-0.5,5.9-0.7,8.7c-0.2,2.8-0.4,5.7-0.6,8.7c-0.2,2.9-0.4,6-0.6,9.1c-0.2,3.2-0.5,6.6-0.7,10.2L429.8,107z"/>
<path id="XMLID_25_" class="st0" d="M498.2,72.7c0.5,0.2,0.8,0.7,0.8,1.3c-0.4,2.7-0.7,5.3-1,8c-0.3,3-0.6,5.8-0.8,8.6
	c-0.2,2.8-0.3,5.4-0.4,7.8c-0.1,2.5-0.1,4.7-0.1,6.7c0,2.7,0,5,0.1,6.9c0.1,1.9,0.2,3.5,0.4,4.9s0.4,2.4,0.7,3.2s0.6,1.4,1,1.8
	c0.4,0.4,0.9,0.7,1.4,0.8c0.5,0.1,1.1,0.2,1.8,0.2c1.2,0,2.6-0.2,4-0.6c1.1-0.3,2.2-0.6,3.2-1.1c0.6-0.3,1.3,0.1,1.5,0.7v0
	c0.2,0.5,0,1.1-0.4,1.4c-0.8,0.6-1.7,1.1-2.8,1.7c-1.4,0.8-2.9,1.5-4.4,2.1s-3.1,1.2-4.6,1.6c-1.5,0.4-2.8,0.6-3.9,0.6
	c-0.7,0-1.4-0.1-2-0.2c-0.6-0.1-1.1-0.4-1.6-0.9c-0.5-0.5-0.9-1.1-1.3-2.1c-0.4-0.9-0.7-2.1-0.9-3.7c-0.2-1.6-0.4-3.5-0.6-5.8
	c-0.1-2.3-0.2-5.1-0.2-8.4c0-1.9,0-4.1,0.1-6.6c0-2.4,0.1-5.1,0.2-7.9c0.1-2.8,0.2-5.8,0.3-8.9c0.1-3.1,0.3-6.3,0.5-9.6
	c0.1-0.7,0.2-1.3,0.6-1.8c0.3-0.5,0.7-0.8,1.2-1c0.5-0.2,1-0.4,1.6-0.5c0.6-0.1,1.1-0.1,1.5-0.1C495.6,71.9,496.9,72.2,498.2,72.7z
	 M495.7,55.6c-0.9,0-1.7-0.2-2.4-0.6c-0.7-0.4-1.3-0.9-1.8-1.5c-0.5-0.6-0.9-1.3-1.1-2.1c-0.3-0.8-0.4-1.6-0.4-2.4
	c0-1.2,0.2-2.2,0.6-3.1c0.4-0.9,0.9-1.6,1.5-2.2c0.6-0.6,1.3-1.1,2.1-1.4c0.7-0.3,1.5-0.4,2.2-0.4c0.9,0,1.7,0.2,2.4,0.5
	c0.7,0.3,1.3,0.8,1.8,1.3c0.5,0.6,0.9,1.2,1.2,2c0.3,0.7,0.4,1.5,0.4,2.4c0,0.9-0.2,1.8-0.5,2.7c-0.3,0.9-0.7,1.7-1.3,2.4
	c-0.6,0.7-1.2,1.3-2,1.7C497.5,55.4,496.6,55.6,495.7,55.6z"/>
<path id="XMLID_28_" class="st0" d="M521.6,83.1c0-1.1-0.1-1.9-0.2-2.7c-0.2-0.7-0.4-1.3-0.7-1.7c-0.3-0.4-0.7-0.7-1.2-0.9
	c-0.5-0.2-1.1-0.3-1.7-0.3c-0.9,0-2,0.1-3.3,0.4c-1,0.2-2,0.4-3.2,0.7c-0.7,0.2-1.3-0.2-1.5-0.9l-0.1-0.5c-0.1-0.6,0.2-1.2,0.8-1.4
	c1.5-0.5,2.9-1,4.3-1.4c1.7-0.5,3.2-1,4.7-1.4c1.4-0.4,2.7-0.7,3.8-0.9c1.1-0.2,1.9-0.3,2.6-0.3c1.5,0,2.7,0.4,3.5,1.3
	c0.8,0.9,1.3,2.4,1.3,4.6c0,0.3,0,0.9-0.1,1.8s-0.1,2.1-0.2,3.6c-0.1,1.4-0.2,3.1-0.3,5c-0.1,1.9-0.3,3.9-0.4,6
	c-0.2,2.1-0.4,4.3-0.6,6.6c-0.2,2.3-0.4,4.5-0.7,6.8l0.2,0c2-6.7,4.1-12.3,6.3-16.9s4.5-8.3,6.9-11.2c2.3-2.9,4.6-4.9,6.9-6.2
	c2.3-1.3,4.5-1.9,6.6-1.9c1.4,0,2.8,0.3,4.2,0.8c1.3,0.5,2.5,1.4,3.6,2.6c1,1.2,1.9,2.7,2.5,4.6c0.6,1.9,0.9,4.1,0.9,6.8
	c0,0.8,0,1.8-0.1,3.1c-0.1,1.3-0.2,2.8-0.3,4.4s-0.3,3.3-0.4,5.1c-0.2,1.8-0.3,3.6-0.4,5.3c-0.1,1.7-0.2,3.4-0.3,4.9
	s-0.1,2.9-0.1,4.1c0,2,0.1,3.7,0.3,4.9s0.4,2.3,0.8,3c0.4,0.7,0.9,1.2,1.5,1.5c0.6,0.3,1.4,0.4,2.4,0.4c1.3,0,2.7-0.2,4.2-0.6
	c1.1-0.3,2.2-0.6,3.3-1.1c0.6-0.3,1.3,0.1,1.5,0.7v0c0.2,0.5,0,1.1-0.4,1.4c-0.8,0.6-1.7,1.1-2.8,1.7c-1.4,0.8-2.9,1.5-4.5,2.1
	c-1.6,0.6-3.1,1.2-4.7,1.6c-1.5,0.4-2.9,0.6-4.1,0.6c-1.4,0-2.5-0.4-3.3-1.1c-0.8-0.7-1.4-1.8-1.8-3.1s-0.7-2.8-0.8-4.5
	s-0.2-3.6-0.2-5.6c0-2.4,0.1-4.9,0.3-7.5c0.2-2.6,0.4-5,0.6-7.3c0.2-2.3,0.4-4.4,0.6-6.3c0.2-1.9,0.3-3.4,0.3-4.6
	c0-3-0.6-5.3-1.7-6.7c-1.1-1.4-2.6-2.2-4.5-2.2c-1.5,0-3.1,0.6-4.7,1.9c-1.7,1.3-3.3,3-4.9,5.2s-3.2,4.8-4.7,7.8s-2.9,6.3-4.1,9.8
	s-2.2,7.2-3,11c-0.7,3.5-1.2,7-1.5,10.5c0,0.6-0.5,1-1,1.1l-7.1,0.9l-0.6,0c0.2-2.5,0.4-5.1,0.6-8c0.2-2.9,0.3-5.8,0.5-8.8
	s0.3-5.9,0.4-8.9c0.1-2.9,0.2-5.7,0.3-8.2c0.1-2.5,0.2-4.8,0.2-6.8C521.5,85.8,521.6,84.2,521.6,83.1z"/>
<path id="XMLID_30_" class="st0" d="M624.1,79.3c1.3,1.9,2.2,3.8,2.8,5.7c0.5,1.9,0.8,3.8,0.8,5.8c0,2-0.3,4-0.8,6
	c-0.6,2-1.3,3.8-2.4,5.5c-1,1.7-2.2,3.3-3.7,4.8c-1.4,1.5-3,2.7-4.8,3.8c-1.8,1.1-3.6,1.9-5.7,2.5c-2,0.6-4.1,0.9-6.3,0.9
	c-0.6,0-1.1,0-1.7-0.1c-0.5,0-1-0.1-1.5-0.2c-0.1,0-0.3,0-0.4,0c-0.8,0.2-1.6,0.4-2.3,0.8c-0.7,0.4-1.4,0.8-2,1.3
	c-0.6,0.5-1,1-1.3,1.6s-0.5,1.1-0.5,1.7c0,1.1,0.4,2.1,1.3,2.9c0.9,0.8,2.1,1.5,3.6,2.1c1.5,0.6,3.2,1.1,5.2,1.6s4,0.9,6.2,1.4
	c1.9,0.4,3.8,0.8,5.7,1.3c1.9,0.4,3.7,0.9,5.4,1.5c1.7,0.6,3.3,1.2,4.7,2c1.4,0.8,2.7,1.7,3.8,2.7c1.1,1,1.9,2.2,2.5,3.6
	s0.9,2.9,0.9,4.7c0,2.2-0.4,4.4-1.2,6.5s-2,4-3.4,5.8c-1.5,1.8-3.2,3.5-5.3,5c-2,1.5-4.3,2.8-6.7,3.9c-2.5,1.1-5.1,1.9-7.8,2.5
	c-2.8,0.6-5.6,0.9-8.6,0.9c-1.7,0-3.5-0.1-5.4-0.4c-1.9-0.2-3.7-0.6-5.6-1.2c-1.8-0.5-3.6-1.2-5.3-2.1c-1.7-0.8-3.1-1.9-4.4-3
	c-1.3-1.2-2.3-2.6-3-4.1s-1.1-3.3-1.1-5.3c0-1.7,0.3-3.2,0.8-4.8c0.5-1.5,1.3-2.9,2.2-4.3s2-2.5,3.2-3.7c1.2-1.1,2.5-2.2,3.9-3.1
	c1.4-0.9,2.7-1.7,4.1-2.3c1.4-0.7,2.8-1.2,4.1-1.6l0.1-0.2c-1-0.4-1.9-0.9-2.8-1.4s-1.7-1.2-2.5-1.9c-0.7-0.7-1.3-1.5-1.8-2.5
	c-0.5-0.9-0.7-2-0.7-3.1c0-1.3,0.3-2.5,0.9-3.5c0.6-1,1.4-2,2.3-2.8c0.9-0.8,2-1.5,3.1-2.1c0.3-0.2,0.6-0.3,0.9-0.5
	c0.9-0.4,0.9-1.7,0-2.1c-1.1-0.6-2.1-1.2-3-1.9c-1.6-1.2-2.9-2.6-4-4.1c-1.1-1.5-1.9-3.2-2.5-5.1c-0.6-1.8-0.9-3.7-0.9-5.7
	c0-3.4,0.7-6.5,2-9.4c1.3-2.9,3.1-5.4,5.3-7.5s4.8-3.7,7.8-4.9c2.9-1.2,6-1.8,9.3-1.8c1.2,0,2.4,0.1,3.4,0.3c1,0.2,2,0.4,2.9,0.7
	c0.9,0.3,1.7,0.6,2.4,0.9c0.7,0.3,1.4,0.6,2.1,0.9c1,0.5,1.9,0.9,2.9,1.3c0.9,0.4,2,0.6,3.3,0.6c1,0,2-0.2,3-0.5
	c1-0.3,1.8-0.8,2.5-1.5c0.7-0.6,1.3-1.4,1.7-2.3c0.4-0.9,0.6-2,0.6-3.1c0-0.2,0-0.3,0-0.5c0-0.2,0-0.3-0.1-0.5l0.5-0.3
	c1.8,0.8,3.1,1.9,4,3.1c0.9,1.2,1.3,2.5,1.3,3.7c0,1-0.2,1.9-0.6,2.6c-0.4,0.8-0.9,1.4-1.6,2c-0.7,0.5-1.6,1-2.5,1.2
	c-1,0.3-2.1,0.4-3.3,0.4c-1.8,0-3.8-0.4-5.9-1.1L624.1,79.3z M598.9,133.6c-0.2-0.1-0.4-0.1-0.6,0c-1.7,0.5-3.4,1.2-4.9,2
	c-1.6,0.9-3.1,2.1-4.4,3.4c-1.3,1.3-2.3,2.8-3,4.6c-0.7,1.7-1.1,3.6-1.1,5.6c0,2.5,0.5,4.6,1.6,6.4c1.1,1.8,2.5,3.3,4.3,4.5
	c1.7,1.2,3.7,2.1,5.8,2.6c2.1,0.6,4.3,0.9,6.4,0.9c2.8,0,5.6-0.4,8.1-1.3s4.8-2.1,6.8-3.6c2-1.5,3.5-3.4,4.6-5.4
	c1.1-2.1,1.7-4.4,1.7-6.9c0-1.4-0.3-2.6-0.9-3.6c-0.6-1-1.4-1.9-2.3-2.6c-1-0.7-2.2-1.4-3.5-1.9s-2.9-1-4.5-1.4
	c-2.2-0.6-4.5-1.1-7-1.6C603.8,134.7,601.4,134.2,598.9,133.6z M606.6,110c1.4,0,2.7-0.2,3.8-0.7c1.1-0.5,2.1-1.1,3-1.9
	c0.9-0.8,1.6-1.7,2.2-2.8c0.6-1.1,1.1-2.2,1.5-3.4c0.4-1.2,0.7-2.4,0.9-3.6c0.2-1.2,0.3-2.4,0.3-3.5c0-1.4-0.1-2.9-0.4-4.3
	c-0.2-1.5-0.6-2.9-1.1-4.2c-0.5-1.4-1.1-2.6-1.9-3.8c-0.8-1.2-1.6-2.2-2.7-3.1c-1-0.9-2.2-1.6-3.4-2.1c-1.3-0.5-2.7-0.8-4.3-0.8
	c-1.5,0-2.8,0.2-4,0.7c-1.2,0.5-2.2,1.1-3.1,1.9c-0.9,0.8-1.7,1.7-2.3,2.8c-0.6,1-1.1,2.2-1.5,3.3c-0.4,1.2-0.7,2.4-0.9,3.6
	c-0.2,1.2-0.3,2.4-0.3,3.5c0,1.4,0.1,2.9,0.4,4.4c0.3,1.5,0.6,2.9,1.2,4.3c0.5,1.4,1.2,2.7,2,3.9c0.8,1.2,1.7,2.3,2.8,3.2
	c1,0.9,2.2,1.6,3.5,2.1S605,110,606.6,110z"/>
<path id="XMLID_35_" class="st1" d="M597.5,132.2c5.4-1,11.6-2.9,17.9-6.2c14.8-7.8,26.4-29,25.6-50.1c-0.8-21.3-20-36.5-42.5-38.7
	c-46-4.4-75.3,39.3-107.8,25.6c-10.6-4.4-23.9-14.5-44-36.8C427.3,4.6,408.3,1.5,383.3,7.2c-39,8.9-48.1,62-71.7,58.6
	c-18.3-2.6-18.5-28.7-32.4-31.4c-7.6-1.4-21-0.2-27.8,24.1"/>
<text id="XMLID_1_" transform="matrix(1.4602 0 0 1 18.0005 171.3027)" class="st2 st3 st4">Tailoring Web Applications</text>
</svg>
