<?xml version="1.0" encoding="utf-8"?>
<!-- Generator: Adobe Illustrator 19.0.0, SVG Export Plug-In . SVG Version: 6.00 Build 0)  -->
<svg version="1.1" id="Layer_1" xmlns="http://www.w3.org/2000/svg" xmlns:xlink="http://www.w3.org/1999/xlink" x="0px" y="0px"
	 viewBox="0 0 643.878 188.776" style="enable-background:new 0 0 643.878 188.776;" xml:space="preserve">
<style type="text/css">
	.st0{fill:#FFFFFF;}
	.st1{fill:none;stroke:#FFFFFF;stroke-width:3;stroke-linecap:round;stroke-miterlimit:10;}
	.st2{fill:#3CA8DF;}
	.st3{font-family:'Gabriola';}
	.st4{font-size:45.7623px;}
</style>
<path id="XMLID_4_" class="st0" d="M58.181,131.535c-0.536-0.06-0.962-0.468-1.043-1.001c-0.697-4.628-1.531-9.41-2.501-14.347
	c-0.812-4.132-1.688-8.284-2.628-12.456c-0.248-1.101-1.75-1.279-2.241-0.262c-0.3,0.622-0.614,1.258-0.942,1.908
	c-0.905,1.795-1.867,3.642-2.887,5.541c-1.021,1.898-2.086,3.811-3.196,5.734c-1.111,1.925-2.215,3.797-3.313,5.618
	c-1.098,1.821-2.183,3.559-3.254,5.211c-0.923,1.423-1.803,2.731-2.639,3.924c-0.25,0.357-0.672,0.541-1.105,0.494l-2.599-0.286
	c-0.543-0.06-0.973-0.475-1.049-1.015c-0.307-2.204-0.659-4.501-1.056-6.894c-0.452-2.725-0.937-5.476-1.453-8.253
	c-0.517-2.776-1.053-5.508-1.608-8.194c-0.556-2.687-1.111-5.237-1.666-7.652c-0.556-2.415-1.091-4.636-1.608-6.665
	c-0.517-2.027-0.995-3.751-1.434-5.172c-0.517-1.653-1.034-3.008-1.35-4.049c-0.343-1.132-0.727-2.086-0.979-2.521
	c-0.373-0.642-1.374-1.376-1.917-1.583c-0.542-0.207-1.469-0.333-2.167-0.333c-0.827,0-1.64,0.069-2.583,0.25
	c-0.647,0.124-1.844,0.448-2.453,1.031c-1.094,1.047-2.839,3.156-3.255,2.698l-0.104-0.229c-0.122-0.585,3.131-4.414,3.719-4.891
	c2.313-1.875,4.928-2.312,7.215-2.907c2.531-0.659,4.339-0.988,5.424-0.988c0.646,0,1.259,0.116,1.84,0.349
	c0.582,0.232,1.13,0.633,1.647,1.201c0.516,0.569,1.02,1.344,1.511,2.325c0.491,0.982,0.969,2.222,1.434,3.719
	c0.335,1.085,0.723,2.441,1.163,4.068c0.439,1.627,0.897,3.455,1.375,5.482c0.478,2.028,0.975,4.217,1.492,6.567
	c0.517,2.351,1.02,4.792,1.511,7.323c0.49,2.532,0.962,5.108,1.414,7.73c0.262,1.523,0.51,3.041,0.742,4.551
	c0.171,1.114,1.634,1.404,2.203,0.431c0.083-0.141,0.166-0.285,0.251-0.431c0.749-1.291,1.531-2.686,2.344-4.185
	c0.814-1.497,1.627-3.041,2.441-4.63c0.814-1.588,1.569-3.131,2.267-4.63c0.698-1.498,1.304-2.893,1.821-4.185
	c0.516-1.291,0.891-2.389,1.124-3.293c0.155-0.62,0.265-1.233,0.329-1.84c0.064-0.606,0.097-1.207,0.097-1.802
	c0-0.8-0.052-1.659-0.155-2.576c-0.104-0.917-0.239-1.841-0.407-2.771c-0.168-0.93-0.355-1.86-0.562-2.79
	c-0.207-0.93-0.414-1.808-0.62-2.635c-0.181-0.698-0.271-1.253-0.271-1.666c0-0.827,0.264-1.466,0.794-1.918
	c0.529-0.452,1.415-0.678,2.654-0.678c0.826,0,1.672,0.11,2.538,0.33c0.674,0.171,1.312,0.393,1.915,0.665
	c0.325,0.147,0.557,0.44,0.646,0.786c0.782,3.04,1.581,6.224,2.398,9.552c0.865,3.526,1.718,7.091,2.557,10.694
	c0.839,3.604,1.634,7.181,2.383,10.733c0.523,2.479,1.007,4.893,1.455,7.24c0.203,1.066,1.614,1.326,2.183,0.402
	c1.25-2.031,2.485-4.094,3.704-6.188c1.743-2.996,3.293-5.986,4.649-8.97c1.356-2.983,2.447-5.947,3.274-8.892
	c0.826-2.944,1.24-5.812,1.24-8.602c0-1.162-0.078-2.292-0.232-3.39c-0.155-1.098-0.42-2.15-0.794-3.158s-0.885-1.963-1.53-2.867
	c-0.646-0.904-1.459-1.744-2.441-2.519l0.426-0.93c0.465-0.052,0.917-0.09,1.356-0.116c0.439-0.025,0.865-0.039,1.279-0.039
	c3.435,0,5.973,0.814,7.613,2.441c1.64,1.627,2.46,3.888,2.46,6.78c0,2.196-0.433,4.682-1.298,7.458
	c-0.866,2.777-2.015,5.689-3.449,8.737s-3.055,6.154-4.862,9.318c-1.809,3.165-3.662,6.232-5.56,9.202
	c-1.898,2.971-3.758,5.768-5.58,8.389c-1.651,2.377-3.137,4.483-4.459,6.318c-0.252,0.35-0.669,0.529-1.097,0.481L58.181,131.535z"
	/>
<path id="XMLID_6_" class="st0" d="M131.652,118.409c0.384-0.231,0.468-0.106,0.71,0.043c0.255,0.157,0.452,0.318,0.659,0.486
	c0.207,0.168,0.387,0.349,0.542,0.542c0.155,0.194,0.232,0.382,0.232,0.563c0,0.104-0.039,0.207-0.116,0.31
	c-1.447,2.015-3.003,3.765-4.669,5.25c-1.666,1.485-3.397,2.726-5.192,3.72c-1.796,0.994-3.623,1.73-5.482,2.208
	c-1.86,0.479-3.694,0.717-5.502,0.717c-3.1,0-5.941-0.633-8.524-1.898c-2.583-1.265-4.805-2.996-6.665-5.191
	s-3.313-4.771-4.359-7.729c-1.046-2.958-1.569-6.128-1.569-9.513c0-2.763,0.303-5.527,0.91-8.292
	c0.607-2.764,1.485-5.398,2.635-7.904c1.149-2.505,2.551-4.836,4.204-6.994c1.653-2.156,3.532-4.03,5.637-5.618
	c2.105-1.588,4.417-2.834,6.936-3.739s5.224-1.356,8.117-1.356c1.911,0,3.732,0.259,5.463,0.775c1.73,0.517,3.248,1.259,4.552,2.228
	s2.344,2.164,3.119,3.584c0.775,1.421,1.163,3.036,1.163,4.843c0,2.635-0.859,4.934-2.577,6.896
	c-1.718,1.963-4.088,3.629-7.11,4.999s-6.581,2.474-10.674,3.313c-4.094,0.84-8.518,1.466-13.271,1.879v0.659
	c0,3.307,0.419,6.329,1.259,9.066c0.839,2.738,1.995,5.082,3.468,7.032c1.472,1.95,3.203,3.468,5.192,4.553
	c1.989,1.085,4.132,1.627,6.432,1.627c2.325,0,4.708-0.574,7.148-1.724C126.763,122.593,129.004,120.911,131.652,118.409z
	 M124.457,87.031c0-1.188-0.2-2.298-0.601-3.332c-0.401-1.033-0.956-1.931-1.666-2.693c-0.71-0.762-1.557-1.362-2.538-1.802
	c-0.982-0.439-2.041-0.659-3.177-0.659c-1.68,0-3.203,0.297-4.572,0.891c-1.369,0.595-2.596,1.402-3.681,2.422
	c-1.085,1.021-2.041,2.208-2.867,3.564c-0.827,1.356-1.53,2.796-2.112,4.32c-0.581,1.524-1.053,3.087-1.414,4.688
	c-0.248,1.097-0.447,2.176-0.598,3.237c-0.106,0.748,0.534,1.402,1.286,1.337c3.084-0.267,5.883-0.674,8.397-1.222
	c2.906-0.632,5.359-1.446,7.362-2.441c2.001-0.994,3.532-2.183,4.591-3.564C123.927,90.395,124.457,88.813,124.457,87.031z"/>
<path id="XMLID_9_" class="st0" d="M159.728,25.802c0.482,0.199,0.759,0.708,0.698,1.226c-0.457,3.862-0.913,7.835-1.369,11.92
	c-0.491,4.392-0.963,8.834-1.415,13.328c-0.452,4.495-0.891,9.015-1.317,13.561c-0.426,4.547-0.813,9.035-1.162,13.464
	c-0.349,4.43-0.653,8.77-0.911,13.019c-0.258,4.249-0.465,8.324-0.62,12.224l0.426,0.039c2.041-5.011,4.236-9.428,6.587-13.251
	c2.35-3.822,4.74-7.025,7.168-9.609c2.428-2.583,4.836-4.533,7.226-5.851c2.389-1.317,4.643-1.976,6.761-1.976
	c1.782,0,3.357,0.33,4.727,0.988c1.369,0.659,2.557,1.537,3.564,2.635c1.007,1.098,1.846,2.363,2.519,3.797
	c0.671,1.434,1.214,2.932,1.627,4.495c0.413,1.563,0.704,3.145,0.872,4.746c0.167,1.602,0.252,3.1,0.252,4.495
	c0,3.849-0.382,7.446-1.143,10.79c-0.762,3.346-1.815,6.394-3.158,9.145c-1.344,2.751-2.932,5.198-4.766,7.343
	c-1.834,2.144-3.823,3.951-5.967,5.424s-4.404,2.59-6.78,3.352c-2.377,0.762-4.766,1.143-7.168,1.143
	c-1.602,0-3.21-0.181-4.824-0.542c-1.615-0.362-3.19-0.917-4.727-1.666c-1.537-0.749-2.99-1.711-4.359-2.887
	c-0.879-0.754-1.699-1.596-2.46-2.526c-0.569-0.695-1.655-0.557-2.023,0.263c-0.643,1.431-1.292,2.657-1.948,3.677
	c-0.747,1.162-1.453,2.141-2.116,2.936c-0.288,0.345-0.754,0.483-1.19,0.374l-0.046-0.012c-0.678-0.169-1.056-0.877-0.839-1.541
	c1.208-3.696,2.114-8.034,2.718-13.013c0.671-5.541,1.188-11.811,1.55-18.812c0.129-2.996,0.291-6.406,0.484-10.229
	s0.394-7.852,0.601-12.089c0.207-4.236,0.426-8.569,0.659-12.999c0.232-4.43,0.465-8.737,0.697-12.922
	c0.233-4.185,0.452-8.149,0.659-11.895c0.207-3.745,0.4-7.064,0.582-9.958c0.025-0.62,0.219-1.156,0.581-1.608
	c0.361-0.452,0.813-0.813,1.356-1.085c0.542-0.271,1.156-0.471,1.84-0.601c0.684-0.129,1.362-0.193,2.034-0.193
	C156.935,24.922,158.309,25.215,159.728,25.802z M185.908,98.809c0-1.756-0.136-3.564-0.407-5.424
	c-0.271-1.86-0.698-3.545-1.279-5.056c-0.47-1.223-1.059-2.268-1.766-3.136c-1.197-1.468-3.091-2.187-4.974-1.981
	c-1.227,0.134-2.441,0.509-3.644,1.126c-1.537,0.789-3.022,1.847-4.456,3.177c-1.434,1.331-2.809,2.867-4.126,4.611
	s-2.551,3.571-3.7,5.482c-1.15,1.912-2.183,3.843-3.1,5.792c-0.917,1.951-1.705,3.804-2.364,5.56
	c-0.659,1.758-1.169,3.352-1.53,4.785c-0.338,1.338-0.518,2.423-0.54,3.255c-0.003,0.12,0.012,0.235,0.041,0.351
	c0.388,1.532,0.974,2.926,1.758,4.182c0.813,1.305,1.795,2.416,2.944,3.332c1.149,0.917,2.428,1.621,3.836,2.112
	c1.408,0.49,2.899,0.735,4.475,0.735c2.583,0,5.018-0.651,7.304-1.956s4.281-3.196,5.986-5.677c1.705-2.479,3.054-5.508,4.049-9.086
	C185.41,107.417,185.908,103.356,185.908,98.809z"/>
<path id="XMLID_12_" class="st0" d="M206.667,107.31c0.666,0.033,1.176,0.61,1.127,1.275c-0.014,0.192-0.025,0.382-0.034,0.569
	c-0.026,0.568-0.039,1.137-0.039,1.705c0,2.944,0.394,5.443,1.182,7.497c0.788,2.054,1.912,3.726,3.371,5.018
	c1.459,1.292,3.216,2.228,5.27,2.809c2.053,0.581,4.359,0.872,6.916,0.872s4.985-0.354,7.284-1.065
	c2.299-0.71,4.32-1.775,6.063-3.196c1.744-1.421,3.132-3.184,4.166-5.289c1.033-2.105,1.55-4.539,1.55-7.304
	c0-1.756-0.239-3.364-0.717-4.824c-0.479-1.459-1.137-2.802-1.976-4.03c-0.84-1.226-1.834-2.356-2.983-3.39
	c-1.15-1.033-2.402-2.008-3.758-2.925c-1.356-0.917-2.784-1.795-4.282-2.635c-1.498-0.839-3.022-1.685-4.572-2.538
	c-1.627-0.878-3.249-1.782-4.863-2.712c-1.614-0.93-3.158-1.924-4.63-2.983c-1.472-1.059-2.842-2.202-4.107-3.429
	c-1.266-1.227-2.357-2.589-3.274-4.088c-0.917-1.498-1.641-3.151-2.17-4.959c-0.53-1.808-0.794-3.81-0.794-6.005
	c0-2.738,0.349-5.289,1.046-7.652c0.697-2.363,1.672-4.533,2.925-6.509c1.252-1.976,2.751-3.739,4.494-5.289
	c1.744-1.55,3.655-2.861,5.734-3.933c2.079-1.071,4.301-1.885,6.665-2.441c2.363-0.555,4.785-0.833,7.265-0.833
	c1.136,0,2.35,0.072,3.642,0.213c1.292,0.142,2.583,0.355,3.875,0.639c1.292,0.285,2.524,0.626,3.7,1.027
	c1.175,0.401,2.215,0.859,3.119,1.375c0.904,0.517,1.627,1.085,2.17,1.705c0.542,0.62,1.133,1.996,1.308,2.671
	c0.219,0.844,0.486,1.835,0.5,2.958c0.017,1.316,0.074,2.437-0.042,3.875c-0.111,1.373-0.271,2.229-0.521,3.917
	c-0.195,1.318-0.5,2.438-0.949,4.06c-0.175,0.633-0.595,1.168-1.251,1.136l-1.517-0.075c-0.655-0.032-1.163-0.591-1.131-1.246
	c0.025-0.508,0.037-1.004,0.037-1.487c0-2.557-0.381-4.81-1.143-6.761c-0.762-1.95-1.834-3.578-3.216-4.882
	s-3.048-2.286-4.998-2.945c-1.951-0.659-4.114-0.988-6.49-0.988c-2.377,0-4.591,0.395-6.645,1.182
	c-2.054,0.788-3.83,1.886-5.328,3.293c-1.498,1.408-2.673,3.081-3.526,5.018c-0.852,1.938-1.278,4.068-1.278,6.393
	c0,1.886,0.245,3.598,0.736,5.134c0.491,1.537,1.168,2.952,2.034,4.243c0.865,1.292,1.892,2.467,3.081,3.526
	c1.188,1.06,2.479,2.06,3.875,3.003c1.395,0.943,2.867,1.84,4.417,2.693s3.112,1.705,4.688,2.557
	c1.627,0.853,3.248,1.731,4.863,2.635c1.614,0.904,3.158,1.866,4.63,2.886c1.473,1.021,2.834,2.131,4.088,3.333
	c1.252,1.201,2.337,2.532,3.254,3.991c0.917,1.459,1.64,3.067,2.17,4.824c0.529,1.757,0.794,3.707,0.794,5.851
	c0,3.54-0.484,6.677-1.453,9.416s-2.267,5.121-3.894,7.148c-1.627,2.028-3.494,3.739-5.599,5.134
	c-2.105,1.395-4.295,2.519-6.567,3.371c-2.273,0.852-4.546,1.465-6.819,1.84c-2.273,0.374-4.378,0.562-6.315,0.562
	c-2.557,0-4.959-0.174-7.207-0.522c-2.248-0.349-4.217-0.808-5.909-1.376c-1.692-0.567-2.716-1.191-3.62-2.005
	c-0.754-0.679-1.45-1.494-1.824-2.218c-0.809-1.567-0.98-3.803-0.864-7.032c0.106-2.936,0.5-6.875,1.532-10.724
	c0.17-0.633,0.597-1.165,1.252-1.132L206.667,107.31z"/>
<path id="XMLID_14_" class="st0" d="M279.612,45.947c0.537,0.218,0.834,0.791,0.712,1.357c-0.997,4.622-1.841,9.385-2.531,14.291
	c-0.675,4.797-1.258,9.534-1.748,14.212c-0.072,0.687,0.46,1.293,1.151,1.318c0.768,0.027,1.522,0.049,2.264,0.066
	c1.149,0.026,2.221,0.052,3.216,0.078c0.994,0.026,1.899,0.039,2.712,0.039s1.492,0,2.034,0c2.35,0,4.274-0.142,5.773-0.426
	c0.129,0.439,0.232,0.84,0.31,1.201c0.078,0.362,0.116,0.698,0.116,1.007c0,1.137-0.472,1.873-1.414,2.208
	c-0.943,0.336-2.306,0.504-4.088,0.504c-1.705,0-3.61-0.103-5.715-0.31c-1.773-0.174-3.688-0.339-5.745-0.494
	c-0.646-0.049-1.225,0.434-1.289,1.079c-0.233,2.357-0.433,4.661-0.599,6.912c-0.194,2.622-0.349,5.095-0.465,7.419
	c-0.116,2.325-0.2,4.482-0.251,6.471c-0.052,1.989-0.078,3.719-0.078,5.192c0,2.765,0.142,5.23,0.426,7.4
	c0.284,2.17,0.788,4.01,1.511,5.521c0.723,1.511,1.717,2.667,2.983,3.468c1.265,0.801,2.867,1.201,4.804,1.201
	c1.395,0,2.951-0.245,4.669-0.736c1.486-0.424,3.151-1.071,4.996-1.941c0.575-0.271,1.265-0.057,1.574,0.498
	c0.133,0.24,0.241,0.492,0.324,0.758c0.155,0.498-0.073,1.045-0.511,1.327c-1.375,0.884-2.76,1.696-4.154,2.438
	c-1.627,0.866-3.229,1.608-4.805,2.228c-1.576,0.62-3.1,1.098-4.572,1.434c-1.473,0.336-2.867,0.504-4.185,0.504
	c-1.731,0-3.313-0.316-4.747-0.949s-2.673-1.756-3.719-3.371c-1.046-1.613-1.86-3.79-2.441-6.528
	c-0.581-2.737-0.872-6.199-0.872-10.384c0-2.351,0.039-4.771,0.116-7.265c0.078-2.493,0.181-5.018,0.31-7.575
	c0.129-2.557,0.296-5.114,0.503-7.671c0.17-2.101,0.357-4.176,0.562-6.225c0.071-0.711-0.495-1.323-1.21-1.304
	c-1.533,0.04-2.976,0.116-4.33,0.226c-1.744,0.143-3.235,0.368-4.475,0.678c-0.078-0.155-0.116-0.335-0.116-0.542
	c0-0.542,0.265-1.052,0.794-1.53s1.266-0.911,2.208-1.298c0.943-0.387,2.073-0.71,3.391-0.968c1.038-0.204,2.157-0.359,3.355-0.466
	c0.569-0.051,1.03-0.494,1.093-1.062c0.562-5.035,1.158-9.808,1.789-14.319c0.671-4.805,1.343-9.092,2.015-12.864
	c0.129-0.671,0.368-1.227,0.717-1.666c0.349-0.439,0.756-0.788,1.221-1.046c0.465-0.258,0.969-0.439,1.511-0.542
	c0.542-0.103,1.071-0.155,1.588-0.155c0.853,0,1.621,0.091,2.305,0.271C278.953,45.703,279.288,45.815,279.612,45.947z"/>
<path id="XMLID_16_" class="st0" d="M313.392,75.227c0.515,0.214,0.831,0.735,0.751,1.286c-0.384,2.655-0.716,5.315-0.995,7.98
	c-0.31,2.958-0.562,5.818-0.755,8.582c-0.194,2.764-0.336,5.379-0.426,7.846c-0.091,2.467-0.136,4.695-0.136,6.684
	c0,2.687,0.039,4.992,0.116,6.916c0.078,1.925,0.207,3.545,0.388,4.862c0.18,1.317,0.407,2.37,0.678,3.158
	c0.271,0.788,0.606,1.395,1.007,1.821c0.4,0.426,0.865,0.703,1.395,0.833c0.529,0.129,1.13,0.193,1.802,0.193
	c1.24,0,2.577-0.188,4.01-0.562c1.07-0.28,2.152-0.642,3.244-1.087c0.617-0.252,1.32,0.078,1.549,0.704l0,0
	c0.185,0.506,0.009,1.069-0.428,1.385c-0.79,0.569-1.715,1.146-2.776,1.73c-1.408,0.774-2.886,1.485-4.436,2.131
	s-3.068,1.168-4.553,1.569c-1.486,0.4-2.771,0.601-3.855,0.601c-0.724,0-1.382-0.059-1.976-0.175
	c-0.595-0.116-1.13-0.406-1.608-0.872c-0.479-0.465-0.905-1.148-1.279-2.053c-0.375-0.904-0.685-2.131-0.93-3.681
	c-0.246-1.551-0.433-3.487-0.562-5.813c-0.129-2.324-0.194-5.14-0.194-8.446c0-1.938,0.02-4.127,0.058-6.567
	c0.039-2.441,0.097-5.063,0.174-7.865c0.078-2.803,0.181-5.76,0.31-8.873c0.129-3.112,0.297-6.321,0.504-9.628
	c0.051-0.723,0.245-1.311,0.581-1.763c0.335-0.452,0.749-0.8,1.24-1.046c0.49-0.245,1.014-0.413,1.569-0.503
	c0.555-0.09,1.065-0.136,1.53-0.136C310.791,74.438,312.126,74.701,313.392,75.227z M310.901,58.126
	c-0.904,0-1.705-0.187-2.402-0.562c-0.697-0.374-1.292-0.865-1.782-1.473c-0.491-0.606-0.866-1.304-1.124-2.092
	c-0.259-0.788-0.388-1.595-0.388-2.422c0-1.162,0.194-2.189,0.582-3.08c0.387-0.891,0.891-1.64,1.511-2.248
	c0.62-0.606,1.304-1.059,2.054-1.356c0.749-0.297,1.485-0.446,2.208-0.446c0.878,0,1.666,0.162,2.363,0.484
	c0.698,0.323,1.298,0.769,1.802,1.337c0.504,0.568,0.891,1.221,1.163,1.957c0.271,0.736,0.407,1.531,0.407,2.383
	c0,0.905-0.155,1.802-0.465,2.693c-0.31,0.891-0.743,1.699-1.298,2.422c-0.556,0.723-1.227,1.305-2.015,1.743
	C312.728,57.908,311.856,58.126,310.901,58.126z"/>
<path id="XMLID_19_" class="st0" d="M348.579,45.947c0.537,0.218,0.834,0.791,0.712,1.357c-0.997,4.622-1.842,9.385-2.531,14.291
	c-0.675,4.797-1.259,9.534-1.749,14.212c-0.072,0.687,0.46,1.293,1.151,1.318c0.768,0.027,1.523,0.049,2.264,0.066
	c1.148,0.026,2.221,0.052,3.216,0.078c0.994,0.026,1.898,0.039,2.712,0.039s1.491,0,2.034,0c2.35,0,4.274-0.142,5.773-0.426
	c0.129,0.439,0.232,0.84,0.31,1.201c0.077,0.362,0.116,0.698,0.116,1.007c0,1.137-0.472,1.873-1.414,2.208
	c-0.943,0.336-2.306,0.504-4.088,0.504c-1.705,0-3.61-0.103-5.715-0.31c-1.773-0.174-3.688-0.339-5.745-0.494
	c-0.646-0.049-1.225,0.434-1.289,1.079c-0.234,2.357-0.433,4.661-0.599,6.913c-0.194,2.622-0.349,5.095-0.465,7.419
	s-0.2,4.482-0.252,6.471c-0.052,1.989-0.078,3.719-0.078,5.192c0,2.765,0.143,5.23,0.427,7.4s0.787,4.01,1.511,5.521
	c0.723,1.511,1.718,2.667,2.983,3.468s2.867,1.201,4.805,1.201c1.395,0,2.951-0.245,4.669-0.736
	c1.486-0.424,3.151-1.071,4.996-1.941c0.575-0.271,1.265-0.057,1.574,0.498c0.133,0.24,0.241,0.492,0.324,0.758
	c0.155,0.498-0.073,1.045-0.511,1.327c-1.376,0.884-2.76,1.696-4.155,2.438c-1.627,0.866-3.229,1.608-4.804,2.228
	c-1.576,0.62-3.101,1.098-4.572,1.434c-1.473,0.336-2.867,0.504-4.185,0.504c-1.731,0-3.313-0.316-4.746-0.949
	s-2.674-1.756-3.72-3.371c-1.046-1.613-1.86-3.79-2.441-6.528c-0.581-2.737-0.871-6.199-0.871-10.384
	c0-2.351,0.038-4.771,0.116-7.265c0.077-2.493,0.18-5.018,0.31-7.575c0.129-2.557,0.297-5.114,0.504-7.671
	c0.169-2.101,0.356-4.176,0.561-6.225c0.071-0.711-0.495-1.323-1.21-1.304c-1.533,0.04-2.977,0.116-4.331,0.226
	c-1.743,0.143-3.234,0.368-4.475,0.678c-0.077-0.155-0.116-0.335-0.116-0.542c0-0.542,0.265-1.052,0.794-1.53
	s1.266-0.911,2.209-1.298c0.942-0.387,2.072-0.71,3.39-0.968c1.038-0.204,2.157-0.359,3.356-0.466
	c0.569-0.051,1.03-0.494,1.093-1.062c0.562-5.035,1.158-9.808,1.789-14.319c0.672-4.805,1.343-9.092,2.015-12.864
	c0.129-0.671,0.368-1.227,0.717-1.666c0.349-0.439,0.756-0.788,1.221-1.046c0.465-0.258,0.969-0.439,1.511-0.542
	c0.543-0.103,1.072-0.155,1.589-0.155c0.853,0,1.621,0.091,2.306,0.271C347.92,45.704,348.255,45.815,348.579,45.947z"/>
<path id="XMLID_21_" class="st0" d="M399.396,90.363c0.724-1.42,1.085-2.867,1.085-4.339c0-1.007-0.174-1.957-0.522-2.848
	s-0.872-1.679-1.569-2.364c-0.697-0.684-1.569-1.227-2.615-1.627s-2.267-0.601-3.662-0.601c-2.015,0-3.822,0.355-5.424,1.065
	c-1.602,0.711-3.017,1.686-4.243,2.925s-2.272,2.673-3.138,4.301c-0.866,1.627-1.576,3.371-2.131,5.23
	c-0.557,1.86-0.963,3.765-1.221,5.715c-0.259,1.95-0.388,3.855-0.388,5.715c0,3.332,0.433,6.361,1.298,9.086
	c0.865,2.726,2.034,5.05,3.507,6.974c1.472,1.925,3.189,3.417,5.153,4.476c1.962,1.06,4.055,1.589,6.276,1.589
	c2.351,0,4.733-0.613,7.148-1.841c2.415-1.227,4.759-3.209,7.032-5.947c0.155,0.077,0.355,0.188,0.601,0.329
	c0.245,0.143,0.472,0.304,0.679,0.484c0.206,0.181,0.387,0.362,0.542,0.543s0.232,0.349,0.232,0.503
	c0,0.104-0.014,0.169-0.039,0.194l-0.077,0.154c-2.506,4.056-5.515,7.091-9.027,9.105c-3.514,2.015-7.362,3.022-11.547,3.022
	c-2.272,0-4.365-0.316-6.276-0.949c-1.912-0.634-3.643-1.512-5.192-2.635c-1.55-1.124-2.912-2.454-4.087-3.991
	c-1.176-1.536-2.157-3.202-2.945-4.998c-0.788-1.795-1.382-3.681-1.782-5.657c-0.4-1.976-0.601-3.971-0.601-5.985
	c0-2.712,0.297-5.431,0.892-8.156c0.594-2.725,1.466-5.347,2.615-7.865c1.149-2.519,2.544-4.869,4.185-7.052
	c1.64-2.183,3.5-4.081,5.579-5.696c2.079-1.614,4.372-2.88,6.878-3.797c2.505-0.917,5.178-1.375,8.02-1.375
	c2.118,0,4.094,0.258,5.929,0.775c1.833,0.517,3.415,1.247,4.746,2.189c1.33,0.943,2.376,2.08,3.139,3.41
	c0.762,1.331,1.143,2.809,1.143,4.437c0,1.059-0.161,1.995-0.484,2.809c-0.323,0.813-0.774,1.511-1.355,2.092
	c-0.582,0.581-1.267,1.021-2.054,1.317c-0.788,0.297-1.646,0.446-2.577,0.446c-0.568,0-1.156-0.058-1.763-0.174
	c-0.607-0.116-1.208-0.303-1.802-0.562L399.396,90.363z"/>
<path id="XMLID_23_" class="st0" d="M427.486,109.58c1.989-6.534,4.101-12.075,6.335-16.622c2.234-4.546,4.508-8.233,6.819-11.062
	c2.312-2.828,4.617-4.875,6.916-6.141c2.299-1.265,4.495-1.898,6.587-1.898c1.446,0,2.842,0.278,4.185,0.833
	c1.343,0.556,2.538,1.414,3.584,2.577c1.046,1.162,1.879,2.661,2.499,4.495s0.93,4.029,0.93,6.586c0,0.775-0.045,1.828-0.135,3.158
	c-0.091,1.331-0.201,2.816-0.33,4.456c-0.129,1.641-0.277,3.365-0.445,5.172c-0.168,1.809-0.316,3.591-0.445,5.347
	c-0.13,1.757-0.239,3.423-0.329,4.998c-0.091,1.576-0.136,2.933-0.136,4.068c0,2.015,0.083,3.655,0.252,4.921
	c0.167,1.266,0.445,2.267,0.833,3.003c0.387,0.736,0.903,1.24,1.55,1.511c0.645,0.271,1.434,0.407,2.363,0.407
	c1.343,0,2.737-0.188,4.185-0.562c1.081-0.28,2.168-0.643,3.264-1.088c0.617-0.251,1.319,0.079,1.548,0.704v0
	c0.185,0.507,0.009,1.071-0.43,1.386c-0.792,0.569-1.723,1.146-2.794,1.73c-1.42,0.774-2.912,1.485-4.475,2.131
	c-1.563,0.646-3.119,1.168-4.669,1.569c-1.55,0.4-2.919,0.601-4.107,0.601c-1.395,0-2.492-0.375-3.293-1.124
	s-1.401-1.769-1.802-3.061s-0.658-2.803-0.774-4.533s-0.175-3.59-0.175-5.58c0-2.401,0.084-4.882,0.252-7.438
	c0.168-2.558,0.349-5.011,0.542-7.362c0.194-2.35,0.375-4.5,0.543-6.451c0.168-1.95,0.252-3.519,0.252-4.708
	c0-2.867-0.556-5.018-1.666-6.451c-1.111-1.434-2.609-2.15-4.495-2.15c-1.472,0-3.041,0.633-4.707,1.898
	c-1.666,1.266-3.319,3.003-4.96,5.211s-3.223,4.817-4.746,7.827c-1.524,3.009-2.894,6.264-4.107,9.764s-2.222,7.162-3.021,10.984
	c-0.732,3.496-1.216,6.992-1.452,10.487c-0.038,0.57-0.47,1.032-1.037,1.101l-7.275,0.888l-0.62-0.039
	c0.154-3.048,0.329-6.412,0.522-10.094c0.194-3.681,0.4-7.587,0.62-11.72s0.452-8.44,0.697-12.922s0.49-9.047,0.736-13.697
	c0.245-4.649,0.497-9.338,0.756-14.064c0.258-4.727,0.51-9.396,0.755-14.007c0.246-4.611,0.484-9.125,0.717-13.542
	c0.233-4.417,0.452-8.64,0.659-12.67c0.025-0.62,0.206-1.156,0.542-1.608c0.336-0.452,0.769-0.813,1.299-1.085
	c0.528-0.271,1.129-0.471,1.801-0.601c0.672-0.129,1.369-0.193,2.093-0.193c1.307,0,2.669,0.294,4.086,0.882
	c0.48,0.199,0.755,0.716,0.697,1.232c-0.555,4.931-1.051,9.477-1.49,13.636c-0.465,4.404-0.885,8.485-1.259,12.244
	c-0.375,3.758-0.711,7.265-1.008,10.519c-0.297,3.255-0.568,6.374-0.813,9.357c-0.246,2.983-0.472,5.896-0.678,8.737
	c-0.207,2.842-0.414,5.729-0.62,8.66c-0.207,2.932-0.42,5.98-0.64,9.144c-0.22,3.165-0.459,6.567-0.717,10.21L427.486,109.58z"/>
<path id="XMLID_25_" class="st0" d="M495.884,75.227c0.515,0.214,0.831,0.735,0.751,1.286c-0.384,2.655-0.716,5.315-0.995,7.98
	c-0.311,2.958-0.563,5.818-0.756,8.582c-0.193,2.764-0.336,5.379-0.426,7.846c-0.091,2.467-0.136,4.695-0.136,6.684
	c0,2.687,0.038,4.992,0.116,6.916c0.077,1.925,0.206,3.545,0.387,4.862s0.407,2.37,0.679,3.158s0.606,1.395,1.007,1.821
	c0.4,0.426,0.865,0.703,1.396,0.833c0.528,0.129,1.129,0.193,1.802,0.193c1.239,0,2.576-0.188,4.01-0.562
	c1.07-0.28,2.151-0.642,3.244-1.087c0.617-0.252,1.32,0.078,1.549,0.704l0,0c0.185,0.506,0.009,1.069-0.428,1.384
	c-0.789,0.569-1.715,1.146-2.775,1.73c-1.408,0.774-2.887,1.485-4.437,2.131s-3.067,1.168-4.553,1.569
	c-1.485,0.4-2.771,0.601-3.855,0.601c-0.724,0-1.382-0.059-1.976-0.175c-0.595-0.116-1.131-0.406-1.608-0.872
	c-0.478-0.465-0.904-1.148-1.278-2.053c-0.375-0.904-0.685-2.131-0.93-3.681c-0.246-1.551-0.433-3.487-0.563-5.813
	c-0.129-2.324-0.193-5.14-0.193-8.446c0-1.938,0.02-4.127,0.059-6.567c0.038-2.441,0.097-5.063,0.174-7.865
	c0.078-2.803,0.181-5.76,0.311-8.873c0.129-3.112,0.296-6.321,0.503-9.628c0.052-0.723,0.245-1.311,0.581-1.763
	c0.336-0.452,0.749-0.8,1.24-1.046c0.49-0.245,1.014-0.413,1.569-0.503c0.555-0.09,1.065-0.136,1.53-0.136
	C493.283,74.438,494.617,74.701,495.884,75.227z M493.392,58.126c-0.904,0-1.704-0.187-2.401-0.562
	c-0.698-0.374-1.292-0.865-1.782-1.473c-0.491-0.606-0.866-1.304-1.124-2.092c-0.259-0.788-0.388-1.595-0.388-2.422
	c0-1.162,0.194-2.189,0.581-3.08c0.388-0.891,0.892-1.64,1.512-2.248c0.619-0.606,1.304-1.059,2.053-1.356
	c0.749-0.297,1.485-0.446,2.209-0.446c0.878,0,1.666,0.162,2.363,0.484c0.697,0.323,1.298,0.769,1.802,1.337
	c0.504,0.568,0.892,1.221,1.162,1.957c0.271,0.736,0.407,1.531,0.407,2.383c0,0.905-0.155,1.802-0.465,2.693
	c-0.311,0.891-0.743,1.699-1.298,2.422c-0.556,0.723-1.228,1.305-2.015,1.743C495.219,57.908,494.348,58.126,493.392,58.126z"/>
<path id="XMLID_28_" class="st0" d="M519.275,85.597c0-1.059-0.077-1.95-0.232-2.673c-0.155-0.723-0.395-1.298-0.717-1.724
	c-0.323-0.426-0.73-0.729-1.221-0.911c-0.491-0.18-1.072-0.271-1.743-0.271c-0.93,0-2.041,0.129-3.332,0.387
	c-0.969,0.194-2.04,0.439-3.211,0.734c-0.657,0.166-1.321-0.243-1.459-0.907l-0.113-0.543c-0.122-0.588,0.216-1.18,0.784-1.376
	c1.477-0.51,2.908-0.982,4.29-1.415c1.691-0.529,3.248-0.988,4.669-1.375c1.421-0.387,2.674-0.684,3.759-0.891
	c1.085-0.207,1.938-0.31,2.557-0.31c1.498,0,2.667,0.446,3.507,1.337c0.839,0.891,1.259,2.421,1.259,4.591
	c0,0.258-0.025,0.859-0.077,1.802s-0.123,2.138-0.213,3.584c-0.091,1.447-0.2,3.106-0.329,4.979
	c-0.13,1.873-0.278,3.869-0.446,5.986c-0.168,2.118-0.355,4.308-0.562,6.567c-0.207,2.261-0.426,4.514-0.658,6.761l0.232,0.039
	c1.962-6.664,4.068-12.289,6.315-16.874s4.533-8.304,6.857-11.159c2.325-2.854,4.637-4.914,6.936-6.18
	c2.299-1.265,4.495-1.898,6.587-1.898c1.446,0,2.841,0.271,4.185,0.813c1.343,0.542,2.538,1.408,3.584,2.596
	c1.046,1.188,1.879,2.719,2.499,4.591c0.62,1.873,0.93,4.14,0.93,6.8c0,0.775-0.045,1.815-0.136,3.119
	c-0.091,1.305-0.2,2.757-0.329,4.359s-0.277,3.3-0.445,5.095c-0.168,1.796-0.316,3.559-0.445,5.289
	c-0.13,1.73-0.239,3.378-0.33,4.94s-0.135,2.925-0.135,4.087c0,2.015,0.083,3.655,0.251,4.921s0.446,2.267,0.833,3.003
	c0.388,0.736,0.904,1.24,1.55,1.511c0.646,0.271,1.434,0.407,2.364,0.407c1.343,0,2.737-0.188,4.185-0.562
	c1.081-0.28,2.168-0.643,3.264-1.088c0.617-0.251,1.319,0.079,1.547,0.704v0c0.185,0.507,0.009,1.071-0.43,1.386
	c-0.792,0.569-1.723,1.146-2.794,1.73c-1.421,0.774-2.912,1.485-4.475,2.131c-1.563,0.646-3.119,1.168-4.669,1.569
	c-1.55,0.4-2.919,0.601-4.107,0.601c-1.395,0-2.493-0.375-3.293-1.124c-0.801-0.749-1.401-1.769-1.802-3.061
	s-0.659-2.803-0.775-4.533s-0.174-3.59-0.174-5.58c0-2.427,0.083-4.927,0.252-7.497c0.168-2.569,0.354-5.017,0.562-7.342
	c0.207-2.325,0.394-4.436,0.562-6.334c0.168-1.899,0.252-3.416,0.252-4.553c0-3.022-0.568-5.25-1.704-6.684
	c-1.138-1.434-2.648-2.15-4.533-2.15c-1.499,0-3.074,0.633-4.728,1.898c-1.653,1.266-3.3,3.003-4.94,5.211s-3.216,4.817-4.727,7.827
	s-2.874,6.264-4.088,9.764s-2.222,7.162-3.021,10.984c-0.733,3.497-1.217,6.993-1.452,10.489c-0.038,0.569-0.468,1.031-1.034,1.101
	l-7.123,0.886l-0.62-0.039c0.207-2.454,0.4-5.127,0.581-8.021c0.181-2.893,0.349-5.831,0.504-8.814s0.291-5.941,0.407-8.873
	c0.116-2.931,0.219-5.669,0.31-8.214c0.091-2.544,0.155-4.824,0.194-6.839C519.255,88.348,519.275,86.76,519.275,85.597z"/>
<path id="XMLID_30_" class="st0" d="M621.796,81.839c1.317,1.886,2.233,3.785,2.751,5.696c0.516,1.912,0.774,3.849,0.774,5.812
	c0,2.041-0.277,4.037-0.833,5.986c-0.556,1.951-1.344,3.797-2.363,5.541c-1.021,1.744-2.247,3.345-3.681,4.804
	c-1.434,1.46-3.029,2.726-4.785,3.798c-1.757,1.072-3.643,1.905-5.657,2.499c-2.015,0.595-4.12,0.891-6.315,0.891
	c-0.568,0-1.13-0.025-1.686-0.077c-0.49-0.046-0.994-0.101-1.514-0.167c-0.137-0.017-0.281-0.013-0.416,0.016
	c-0.825,0.18-1.582,0.437-2.274,0.77c-0.749,0.361-1.408,0.788-1.976,1.278c-0.568,0.491-1.008,1.014-1.317,1.569
	s-0.465,1.117-0.465,1.686c0,1.137,0.445,2.105,1.337,2.905c0.891,0.802,2.085,1.499,3.584,2.093
	c1.497,0.595,3.235,1.117,5.211,1.569s4.035,0.91,6.18,1.375c1.938,0.413,3.849,0.839,5.734,1.279
	c1.886,0.438,3.681,0.942,5.386,1.511c1.705,0.567,3.28,1.233,4.728,1.995c1.446,0.762,2.698,1.653,3.758,2.674
	c1.059,1.02,1.886,2.208,2.479,3.564s0.892,2.925,0.892,4.708c0,2.247-0.407,4.41-1.221,6.489s-1.957,4.023-3.429,5.831
	c-1.473,1.808-3.229,3.461-5.27,4.96c-2.041,1.498-4.288,2.783-6.742,3.855c-2.454,1.071-5.069,1.898-7.846,2.479
	c-2.777,0.581-5.638,0.871-8.582,0.871c-1.705,0-3.501-0.122-5.386-0.367c-1.886-0.246-3.745-0.634-5.579-1.163
	c-1.835-0.529-3.584-1.214-5.25-2.054c-1.666-0.839-3.139-1.854-4.417-3.041c-1.279-1.188-2.293-2.558-3.042-4.107
	s-1.123-3.319-1.123-5.308c0-1.653,0.271-3.242,0.813-4.766c0.542-1.524,1.271-2.945,2.188-4.263s1.982-2.544,3.197-3.681
	c1.214-1.137,2.499-2.157,3.854-3.061c1.356-0.904,2.738-1.686,4.146-2.345c1.407-0.658,2.77-1.182,4.087-1.568l0.078-0.194
	c-0.956-0.413-1.893-0.885-2.81-1.414s-1.743-1.156-2.479-1.879c-0.736-0.724-1.331-1.543-1.782-2.461
	c-0.452-0.916-0.678-1.956-0.678-3.118c0-1.317,0.303-2.5,0.91-3.546c0.606-1.046,1.376-1.976,2.306-2.789
	c0.93-0.814,1.95-1.518,3.061-2.112c0.302-0.162,0.602-0.318,0.898-0.468c0.856-0.433,0.883-1.673,0.033-2.117
	c-1.091-0.57-2.105-1.22-3.043-1.949c-1.563-1.214-2.881-2.596-3.952-4.146c-1.072-1.55-1.893-3.235-2.461-5.056
	c-0.568-1.821-0.852-3.726-0.852-5.715c0-3.383,0.658-6.515,1.976-9.396c1.317-2.88,3.093-5.366,5.327-7.458
	s4.824-3.732,7.769-4.921c2.945-1.188,6.045-1.782,9.3-1.782c1.239,0,2.376,0.091,3.409,0.271c1.033,0.181,1.988,0.407,2.867,0.678
	c0.878,0.271,1.686,0.568,2.422,0.891c0.736,0.323,1.427,0.639,2.072,0.949c0.981,0.491,1.943,0.924,2.887,1.298
	c0.942,0.375,2.034,0.562,3.274,0.562c1.032,0,2.027-0.167,2.983-0.504c0.955-0.335,1.795-0.819,2.519-1.453
	c0.723-0.633,1.298-1.408,1.724-2.325c0.427-0.917,0.64-1.957,0.64-3.119c0-0.18-0.007-0.349-0.02-0.504
	c-0.014-0.155-0.032-0.335-0.058-0.542l0.503-0.349c1.782,0.827,3.106,1.854,3.972,3.081c0.865,1.227,1.298,2.46,1.298,3.7
	c0,0.982-0.193,1.854-0.581,2.615c-0.388,0.762-0.937,1.414-1.646,1.957c-0.711,0.542-1.557,0.956-2.538,1.24
	c-0.981,0.285-2.066,0.426-3.255,0.426c-1.808,0-3.758-0.361-5.851-1.085L621.796,81.839z M596.615,136.083
	c-0.203-0.05-0.421-0.05-0.623,0.007c-1.72,0.486-3.354,1.169-4.902,2.046c-1.641,0.93-3.094,2.06-4.359,3.391
	c-1.266,1.33-2.267,2.848-3.003,4.553c-0.735,1.704-1.104,3.564-1.104,5.579c0,2.479,0.548,4.617,1.646,6.412
	c1.098,1.795,2.519,3.287,4.262,4.476c1.744,1.188,3.688,2.066,5.831,2.635c2.145,0.567,4.263,0.853,6.354,0.853
	c2.841,0,5.554-0.434,8.137-1.299s4.85-2.066,6.8-3.603c1.95-1.537,3.5-3.352,4.649-5.444c1.149-2.092,1.725-4.378,1.725-6.857
	c0-1.396-0.285-2.59-0.853-3.584c-0.568-0.995-1.351-1.86-2.345-2.597c-0.994-0.735-2.176-1.362-3.545-1.879
	s-2.867-0.994-4.494-1.434c-2.196-0.595-4.514-1.137-6.955-1.627C601.495,137.239,599.088,136.697,596.615,136.083z
	 M604.283,112.564c1.396,0,2.654-0.238,3.778-0.717c1.123-0.478,2.124-1.116,3.003-1.918c0.877-0.8,1.627-1.736,2.247-2.809
	c0.619-1.072,1.129-2.195,1.53-3.371c0.4-1.175,0.697-2.376,0.891-3.603c0.194-1.227,0.291-2.409,0.291-3.545
	c0-1.42-0.123-2.86-0.368-4.32c-0.246-1.459-0.614-2.873-1.104-4.243c-0.49-1.369-1.117-2.647-1.879-3.835
	c-0.762-1.188-1.646-2.228-2.654-3.119c-1.007-0.891-2.157-1.595-3.448-2.112c-1.292-0.516-2.726-0.775-4.301-0.775
	c-1.473,0-2.796,0.232-3.972,0.698c-1.175,0.465-2.215,1.098-3.118,1.898c-0.905,0.801-1.673,1.724-2.306,2.77
	c-0.634,1.046-1.149,2.157-1.55,3.333c-0.401,1.175-0.697,2.37-0.892,3.584c-0.193,1.214-0.29,2.376-0.29,3.487
	c0,1.421,0.129,2.874,0.387,4.359c0.259,1.486,0.646,2.913,1.163,4.281c0.517,1.37,1.168,2.661,1.956,3.875
	c0.788,1.215,1.705,2.273,2.751,3.178c1.047,0.904,2.229,1.614,3.546,2.131S602.707,112.564,604.283,112.564z"/>
<path id="XMLID_35_" class="st1" d="M595.256,134.697c5.393-1.012,11.558-2.859,17.875-6.208
	c14.768-7.83,26.357-28.962,25.583-50.098c-0.779-21.277-20-36.527-42.49-38.664c-45.973-4.369-75.288,39.315-107.843,25.637
	c-10.585-4.447-23.864-14.516-44-36.833C425.048,7.103,406.04,4.022,381.048,9.697c-38.995,8.855-48.084,61.95-71.708,58.583
	c-18.283-2.606-18.511-28.74-32.375-31.375c-7.563-1.438-21.047-0.165-27.75,24.125"/>
<text id="XMLID_1_" transform="matrix(1.4602 0 0 1 15.7148 173.8333)" class="st2 st3 st4">Tailoring Web Applications</text>
</svg>
